<svg xmlns="http://www.w3.org/2000/svg" fill="none" viewBox="-0.5 -0.5 30 30" id="Appwrite-Icon--Streamline-Svg-Logos.svg" height="30" width="30"><desc>Appwrite Icon Streamline Icon: https://streamlinehq.com</desc><path fill="#F02E65" d="M14.502084374999999 6.316199999999999c1.3932989583333333 -0.8084052083333333 3.0120729166666664 -1.2713177083333331 4.738992708333333 -1.2713177083333331C24.464007291666668 5.044882291666666 28.697916666666664 9.278791666666667 28.697916666666664 14.501721874999998c0 5.222930208333333 -4.233909375 9.456839583333332 -9.456839583333332 9.456839583333332 -1.7262552083333333 0 -3.3444249999999998 -0.4625197916666666 -4.7373916666666664 -1.27038125 -3.1906343749999997 1.845245833333333 -7.308573958333333 1.7220864583333333 -10.435740625000001 -0.637728125C1.3683740625 20.016253125 -0.040207291666666665 16.695873958333333 0.3732420833333333 13.341057291666665 0.7866944791666666 9.986240624999999 2.9593019791666664 7.107205208333333 6.071995833333333 5.789336458333333c2.7563895833333327 -1.1670385416666667 5.878783333333333 -0.9527104166666666 8.430088541666667 0.5268635416666666ZM3.60923125 9.856948958333332C1.0439939583333333 13.256322916666667 1.7201923958333332 18.091589583333334 5.119557291666667 20.656820833333335c3.399373958333333 2.5652312499999996 8.234610416666666 1.8890177083333333 10.799841666666666 -1.5103260416666666 1.7183708333333332 -2.2771343749999997 1.9822406249999998 -5.198582291666666 0.9473635416666666 -7.650411458333333 -0.7601927083333333 -1.7895416666666666 -2.1771447916666666 -3.232714583333333 -3.948380208333333 -4.027042708333333l0.004047916666666667 -0.003745833333333333c-3.209695833333333 -1.4440791666666666 -7.103580208333333 -0.5364395833333333 -9.313198958333333 2.3916541666666666Zm6.826086458333332 1.3341510416666666c0.28936562499999996 0 0.38421979166666664 0.016584375 0.36751458333333326 0.06663958333333332 -0.008186458333333332 0.018910416666666666 -0.03205104166666666 0.10708854166666665 -0.06395104166666667 0.23483958333333332l-0.012325000000000001 0.049692708333333335c-0.03165833333333333 0.128596875 -0.0696 0.2886708333333333 -0.10748125 0.45572291666666664 -0.061353124999999994 0.26948854166666664 -0.19436041666666665 0.8323302083333333 -0.33123437499999997 1.4097625l-0.024921875 0.10506458333333332c-0.04153645833333333 0.1752083333333333 -0.08304270833333333 0.3502052083333333 -0.12264583333333333 0.5172270833333333 -0.178078125 0.7514624999999999 -0.40083437499999997 1.7090666666666667 -0.5012166666666666 2.1264854166666662l-0.17239895833333332 0.7684697916666665h-0.38425c-0.21139791666666666 0 -0.38409895833333335 -0.022565625 -0.38409895833333335 -0.050206249999999994 0 -0.10023125 0.167021875 -0.8573729166666666 0.4456333333333333 -2.009639583333333 0.14448645833333332 -0.6290885416666666 0.40053229166666665 -1.6923312499999998 0.5621770833333333 -2.3659468749999997 0.08681874999999999 -0.37567083333333334 0.17019375 -0.7184447916666665 0.2289489583333333 -0.9530427083333333l0.01178125 -0.04694375c0.03999583333333333 -0.1588052083333333 0.0663375 -0.25813020833333333 0.07089895833333333 -0.269428125 0.010935416666666666 -0.0221125 0.20034166666666667 -0.03869687499999999 0.4175697916666667 -0.03869687499999999Zm-2.427209375 1.892521875c0.25607604166666664 0 0.4675947916666667 0.016735416666666666 0.4675947916666667 0.038998958333333326 0 0.027791666666666666 -0.2004625 0.26187604166666667 -0.44533124999999996 0.5345364583333333 -0.24501979166666665 0.267253125 -0.4454822916666666 0.5176499999999999 -0.4454822916666666 0.5566489583333333 0 0.03331979166666666 0.217046875 0.3007239583333333 0.4789531249999999 0.5787614583333333l0.47865104166666667 0.5177708333333333h-1.0131875l-0.35630729166666664 -0.3783895833333333c-0.19481354166666667 -0.20602083333333335 -0.4233697916666666 -0.45671979166666665 -0.50659375 -0.5568l-0.1504375 -0.178078125 0.512121875 -0.5568 0.5179520833333333 -0.5566489583333333h0.4620666666666667Zm3.8914072916666664 0 0.5007937499999999 0.540215625c0.27846041666666665 0.29489374999999995 0.501065625 0.5566489583333333 0.501065625 0.5842895833333333 0 0.03331979166666666 -0.21139791666666666 0.28981875 -0.4732739583333333 0.5790333333333333l-0.4730020833333333 0.5176499999999999 -0.5178010416666666 0.005528125h-0.5174989583333334l0.46191562499999994 -0.50659375c0.25592499999999996 -0.27278125 0.46762499999999996 -0.5342343749999999 0.47868124999999995 -0.5733541666666666 0.016735416666666666 -0.07216770833333333 -0.2893958333333333 -0.4398333333333333 -0.7239729166666665 -0.8739572916666666 -0.11666458333333332 -0.11699687499999999 -0.21139791666666666 -0.22260520833333333 -0.21139791666666666 -0.23949166666666663 0 -0.016584375 0.21707708333333334 -0.03331979166666666 0.4898583333333333 -0.03331979166666666h0.48463229166666666Z" stroke-width="1"></path></svg>