<svg xmlns="http://www.w3.org/2000/svg" fill="none" viewBox="-0.5 -0.5 30 30" id="Bootstrap--Streamline-Svg-Logos.svg" height="30" width="30"><desc>Bootstrap Streamline Icon: https://streamlinehq.com</desc><path fill="#7E13F8" d="M6.1999885416666665 3.1897281250000002c-1.6202541666666666 0 -2.8191322916666666 1.4181 -2.7654520833333334 2.956036458333333 0.05147499999999999 1.4775500000000001 -0.015406249999999998 3.391157291666666 -0.49717479166666667 4.951719791666666C2.4541521875 12.662608333333333 1.6369291666666665 13.654076041666666 0.3020833333333333 13.781373958333331v1.4371010416666665c1.3348458333333333 0.12729791666666665 2.1520688541666666 1.118765625 2.635278333333333 2.6838895833333334 0.4817685416666666 1.5605927083333333 0.5486497916666666 3.4741697916666663 0.49717479166666667 4.951719791666666 -0.053680208333333326 1.5376947916666666 1.1451979166666666 2.956036458333333 2.76569375 2.956036458333333h16.601956249999997c1.6202239583333333 0 2.8188604166666664 -1.4181 2.7652104166666667 -2.956036458333333 -0.05150520833333334 -1.4775500000000001 0.015406249999999998 -3.391127083333333 0.49716874999999994 -4.951719791666666 0.48345416666666663 -1.5651239583333332 1.2985052083333333 -2.556591666666667 2.6333510416666663 -2.6838895833333334v-1.4371010416666665c-1.3348458333333333 -0.12729791666666665 -2.149896875 -1.118765625 -2.6333510416666663 -2.6838895833333334 -0.4817625 -1.5603208333333332 -0.5486739583333333 -3.4741697916666663 -0.49716874999999994 -4.951719791666666 0.053649999999999996 -1.5376947916666666 -1.1449864583333331 -2.956036458333333 -2.7652104166666667 -2.956036458333333H6.199746874999999h0.00024166666666666667Zm13.353503125 13.924289583333334c0 2.117664583333333 -1.5795635416666667 3.4019718749999996 -4.200891666666666 3.4019718749999996H10.890345833333333c-0.265803125 0 -0.48127916666666665 -0.21547604166666667 -0.48127916666666665 -0.48127916666666665V8.965138541666667c0 -0.265803125 0.21547604166666667 -0.48127916666666665 0.48127916666666665 -0.48127916666666665h4.436728124999999c2.185784375 0 3.6202572916666664 1.1839552083333331 3.6202572916666664 3.0017718749999998 0 1.275909375 -0.9650052083333334 2.4182375 -2.194423958333333 2.618186458333333v0.06666979166666666c1.6736624999999998 0.18360625 2.8005843749999997 1.3425489583333332 2.8005843749999997 2.9435302083333332ZM14.866004166666665 10.009531249999998h-2.5442968749999997v3.593764583333333h2.1429187499999998c1.6565947916666666 0 2.570064583333333 -0.6670604166666667 2.570064583333333 -1.8594437499999998 0 -1.117315625 -0.7854468749999999 -1.7343208333333333 -2.168686458333333 -1.7343208333333333Zm-2.5442968749999997 5.0198093749999995v3.9604937499999995h2.6379125c1.7246843749999998 0 2.6384260416666665 -0.6920729166666666 2.6384260416666665 -1.992753125 0 -1.3009218749999998 -0.9392375 -1.9679822916666667 -2.7493510416666664 -1.9679822916666667h-2.5269874999999997v0.00024166666666666667Z" stroke-width="1"></path></svg>