<svg xmlns="http://www.w3.org/2000/svg" fill="none" viewBox="-0.5 -0.5 30 30" id="Javascript--Streamline-Svg-Logos.svg" height="30" width="30"><desc>Javascript Streamline Icon: https://streamlinehq.com</desc><path fill="#F7DF1E" d="M0.3020833333333333 0.3020833333333333h28.395833333333332v28.395833333333332H0.3020833333333333V0.3020833333333333Z" stroke-width="1"></path><path fill="#000000" d="m7.768526041666666 24.031695833333334 2.1730364583333333 -1.3150895833333331c0.41923124999999994 0.74330625 0.8005812499999999 1.372183333333333 1.7153197916666667 1.372183333333333 0.8768572916666666 0 1.4296697916666667 -0.34298541666666665 1.4296697916666667 -1.6771364583333332V13.338489583333333h2.6684833333333335v9.110893749999999c0 2.7638510416666664 -1.6200729166666668 4.021877083333333 -3.9837541666666665 4.021877083333333 -2.1346718749999996 0 -3.373817708333333 -1.1055947916666666 -4.002815625 -2.4398062499999997" stroke-width="1"></path><path fill="#000000" d="m17.204280208333333 23.745773958333334 2.1727947916666666 -1.2580260416666667c0.5719645833333333 0.9340718749999999 1.3153614583333333 1.6202239583333333 2.63048125 1.6202239583333333 1.1056854166666665 0 1.8107479166666667 -0.5528125 1.8107479166666667 -1.3152708333333334 0 -0.9149197916666667 -0.724275 -1.2389947916666666 -1.944208333333333 -1.772534375l-0.6669395833333334 -0.286103125c-1.9252677083333334 -0.8194916666666666 -3.202415625 -1.84875 -3.202415625 -4.021756249999999 0 -2.0014229166666664 1.5248562499999998 -3.5263697916666668 3.90756875 -3.5263697916666668 1.6964697916666664 0 2.916342708333333 0.5909656249999999 3.7930791666666663 2.1349135416666667l-2.0776989583333334 1.334211458333333c-0.45747499999999997 -0.8195520833333333 -0.9529218749999999 -1.1435364583333332 -1.7153197916666667 -1.1435364583333332 -0.7815197916666666 0 -1.2771479166666666 0.4955677083333333 -1.2771479166666666 1.1435364583333332 0 0.8005812499999999 0.495628125 1.1246864583333334 1.639164583333333 1.6203145833333334l0.6670906249999999 0.28589166666666666c2.268283333333333 0.9721947916666667 3.545401041666666 1.9632395833333331 3.545401041666666 4.193309374999999 0 2.401834375 -1.8869937499999998 3.716923958333333 -4.422077083333333 3.716923958333333 -2.4779291666666663 0 -4.079121874999999 -1.1817197916666666 -4.860520833333333 -2.725728125Z" stroke-width="1"></path></svg>