<svg xmlns="http://www.w3.org/2000/svg" fill="none" viewBox="-0.5 -0.5 30 30" id="Mongodb-Icon--Streamline-Svg-Logos.svg" height="30" width="30"><desc>Mongodb Icon Streamline Icon: https://streamlinehq.com</desc><path fill="#01EC64" d="M16.966510416666665 3.466980208333333c-1.1917489583333334 -1.4139795833333333 -2.2180166666666663 -2.8500626041666663 -2.4276625 -3.1483276041666666 -0.022082291666666663 -0.0220925625 -0.055190625 -0.0220925625 -0.07724270833333333 0 -0.20967604166666667 0.298265 -1.2359135416666667 1.7343480208333333 -2.4276927083333333 3.1483276041666666C1.8045974999999999 16.513234375 13.645013541666666 25.317604166666666 13.645013541666666 25.317604166666666l0.09932499999999998 0.06627708333333333C13.832607291666665 26.742591666666662 14.053309374999998 28.697916666666664 14.053309374999998 28.697916666666664h0.882778125s0.22070208333333333 -1.9442989583333332 0.30900104166666664 -3.314035416666666l0.09929479166666666 -0.07733333333333332c0.011026041666666665 0.01105625 11.851484375 -8.793313541666665 1.6221270833333332 -21.83956770833333Zm-2.4718270833333333 21.651732291666665s-0.5296427083333334 -0.45288333333333336 -0.6731020833333333 -0.6848229166666666v-0.022203124999999997l0.6400239583333333 -14.206133333333332c0 -0.04419479166666667 0.06621666666666666 -0.04419479166666667 0.06621666666666666 0l0.6399937499999999 14.206133333333332v0.022203124999999997c-0.14342916666666666 0.23193958333333334 -0.6731322916666667 0.6848229166666666 -0.6731322916666667 0.6848229166666666Z" stroke-width="1"></path></svg>