<svg xmlns="http://www.w3.org/2000/svg" fill="none" viewBox="-0.5 -0.5 30 30" id="Nodejs-Icon--Streamline-Svg-Logos.svg" height="30" width="30"><desc>Nodejs Icon Streamline Icon: https://streamlinehq.com</desc><path fill="#539E43" d="M14.500060416666665 28.697916666666664c-0.39131875 0 -0.7565375 -0.10433958333333332 -1.0956864583333332 -0.2869489583333333l-3.469578125 -2.060903125c-0.521728125 -0.2869489583333333 -0.26087916666666666 -0.3912885416666666 -0.10433958333333332 -0.4434583333333333 0.7043375 -0.234809375 0.8347770833333332 -0.2869791666666666 1.5652145833333333 -0.7043677083333333 0.07826979166666666 -0.05216979166666666 0.182609375 -0.026069791666666665 0.26087916666666666 0.026099999999999998l2.6609010416666665 1.5913145833333333c0.10433958333333332 0.05216979166666666 0.23477916666666665 0.05216979166666666 0.31301874999999996 0l10.408764583333333 -6.026139583333332c0.10436979166666666 -0.05216979166666666 0.15653958333333332 -0.15650937499999998 0.15653958333333332 -0.2869489583333333V8.480385416666666c0 -0.13043958333333333 -0.05216979166666666 -0.23477916666666665 -0.15653958333333332 -0.2869489583333333L14.630469791666666 2.193399895833333c-0.10433958333333332 -0.05217583333333333 -0.23477916666666665 -0.05217583333333333 -0.31301874999999996 0L3.908686458333333 8.193436458333332c-0.10436979166666666 0.05216979166666666 -0.15653958333333332 0.182609375 -0.15653958333333332 0.2869489583333333v12.026179166666665c0 0.10433958333333332 0.05216979166666666 0.23477916666666665 0.15653958333333332 0.2869489583333333l2.8434802083333333 1.6434843749999999c1.5391447916666667 0.7826072916666666 2.5043614583333333 -0.13043958333333333 2.5043614583333333 -1.0434864583333332V9.523871875c0 -0.15650937499999998 0.13043958333333333 -0.3130489583333333 0.3130489583333333 -0.3130489583333333h1.3304354166666668c0.15653958333333332 0 0.3130489583333333 0.13043958333333333 0.3130489583333333 0.3130489583333333v11.869639583333333c0 2.060903125 -1.1217260416666666 3.260898958333333 -3.0782593749999996 3.260898958333333 -0.6000281249999999 0 -1.0695864583333332 0 -2.4000218749999997 -0.6521677083333333l-2.739152708333333 -1.5652447916666665c-0.6782646874999999 -0.3912885416666666 -1.0956592708333333 -1.1217260416666666 -1.0956592708333333 -1.9043635416666667V8.506485416666667c0 -0.7826072916666666 0.41739458333333335 -1.5130447916666667 1.0956592708333333 -1.9043635416666667L13.404373958333332 0.5759973958333333c0.6521979166666666 -0.36521905208333333 1.5391447916666667 -0.36521905208333333 2.1913427083333334 0L26.004481249999998 6.602121875c0.6782677083333333 0.39131875 1.0956562499999998 1.12175625 1.0956562499999998 1.9043635416666667v12.026148958333332c0 0.7826375 -0.4173885416666666 1.513075 -1.0956562499999998 1.9043635416666667L15.595716666666666 28.463137500000002c-0.3391489583333333 0.15650937499999998 -0.7304375 0.23477916666666665 -1.0956562499999998 0.23477916666666665Zm3.208698958333333 -8.269621874999999c-4.565234375 0 -5.50438125 -2.0869729166666664 -5.50438125 -3.860896875 0 -0.15650937499999998 0.13043958333333333 -0.3130489583333333 0.3130489583333333 -0.3130489583333333h1.3565354166666665c0.15650937499999998 0 0.2869489583333333 0.10436979166666666 0.2869489583333333 0.26087916666666666 0.20870937499999997 1.3826052083333333 0.8087072916666666 2.0608729166666664 3.573947916666666 2.0608729166666664 2.1913124999999996 0 3.1304593749999996 -0.4956583333333333 3.1304593749999996 -1.6695541666666665 0 -0.6782677083333333 -0.26087916666666666 -1.1739260416666666 -3.6782874999999997 -1.513075 -2.8435104166666667 -0.2869489583333333 -4.617434374999999 -0.9130468749999999 -4.617434374999999 -3.1826291666666666 0 -2.1130427083333334 1.7739239583333333 -3.3652385416666664 4.747873958333333 -3.3652385416666664 3.3391385416666663 0 4.982622916666666 1.1478562499999998 5.191332291666666 3.652217708333333 0 0.07823958333333333 -0.026099999999999998 0.15650937499999998 -0.07826979166666666 0.23477916666666665 -0.05216979166666666 0.05216979166666666 -0.13043958333333333 0.10433958333333332 -0.20870937499999997 0.10433958333333332h-1.3565052083333333c-0.13043958333333333 0 -0.26087916666666666 -0.10433958333333332 -0.2869791666666666 -0.23477916666666665 -0.3130489583333333 -1.4348052083333331 -1.1217260416666666 -1.9043635416666667 -3.26086875 -1.9043635416666667 -2.4000218749999997 0 -2.6870010416666665 0.8347770833333332 -2.6870010416666665 1.460875 0 0.7565375 0.3391489583333333 0.9913166666666666 3.573947916666666 1.4087052083333331 3.2087291666666666 0.4173885416666666 4.7217739583333325 1.0174166666666666 4.7217739583333325 3.260898958333333 -0.026099999999999998 2.295652083333333 -1.9043635416666667 3.6000177083333327 -5.217432291666666 3.6000177083333327Z" stroke-width="1"></path></svg>